<svg width="1920" height="1080" viewBox="0 0 1920 1080" xmlns="http://www.w3.org/2000/svg"><rect width="1920" height="1080" fill="#0062ff"/><path d="M 0,1080 C 0,1080 0,180 0,180 C 85.56923076923081,218.4076923076923 171.13846153846163,256.8153846153846 267,245 C 362.8615384615384,233.1846153846154 469.0153846153845,171.14615384615388 584,139 C 698.9846153846155,106.85384615384613 822.8000000000002,104.6 946,138 C 1069.1999999999998,171.4 1191.7846153846153,240.45384615384614 1295,232 C 1398.2153846153847,223.54615384615386 1482.0615384615385,137.58461538461538 1583,116 C 1683.9384615384615,94.41538461538462 1801.9692307692308,137.2076923076923 1920,180 C 1920,180 1920,1080 1920,1080 Z" fill="#ffffff" opacity="0.09999999999999999"/><path d="M 0,1080 C 0,1080 0,360 0,360 C 130.46923076923076,341.57948717948716 260.9384615384615,323.1589743589744 374,314 C 487.0615384615385,304.8410256410256 582.7153846153848,304.94358974358977 670,298 C 757.2846153846152,291.05641025641023 836.1999999999998,277.06666666666666 934,298 C 1031.8000000000002,318.93333333333334 1148.4846153846154,374.7897435897436 1265,374 C 1381.5153846153846,373.2102564102564 1497.8615384615384,315.77435897435896 1607,304 C 1716.1384615384616,292.22564102564104 1818.0692307692307,326.1128205128205 1920,360 C 1920,360 1920,1080 1920,1080 Z" fill="#ffffff" opacity="0.19999999999999998"/><path d="M 0,1080 C 0,1080 0,540 0,540 C 106.19487179487183,550.4384615384615 212.38974358974366,560.876923076923 331,574 C 449.61025641025634,587.123076923077 580.6358974358974,602.9307692307692 678,579 C 775.3641025641026,555.0692307692308 839.0666666666666,491.40000000000003 940,482 C 1040.9333333333334,472.59999999999997 1179.0974358974363,517.4692307692308 1290,523 C 1400.9025641025637,528.5307692307692 1484.5435897435896,494.723076923077 1585,491 C 1685.4564102564104,487.276923076923 1802.7282051282052,513.6384615384616 1920,540 C 1920,540 1920,1080 1920,1080 Z" fill="#ffffff" opacity="0.3"/><path d="M 0,1080 C 0,1080 0,720 0,720 C 104.95897435897436,721.6025641025641 209.91794871794872,723.2051282051282 329,722 C 448.0820512820513,720.7948717948718 581.2871794871795,716.7820512820513 676,708 C 770.7128205128205,699.2179487179487 826.9333333333334,685.6666666666666 917,670 C 1007.0666666666666,654.3333333333334 1130.9794871794873,636.5512820512821 1245,652 C 1359.0205128205127,667.4487179487179 1463.148717948718,716.1282051282052 1574,733 C 1684.851282051282,749.8717948717948 1802.425641025641,734.9358974358975 1920,720 C 1920,720 1920,1080 1920,1080 Z" fill="#ffffff" opacity="0.39999999999999997"/><path d="M 0,1080 C 0,1080 0,900 0,900 C 134.9820512820513,922.3 269.9641025641026,944.6 368,940 C 466.0358974358974,935.4 527.1256410256411,903.9 627,888 C 726.8743589743589,872.1 865.5333333333333,871.8 981,892 C 1096.4666666666667,912.2 1188.7410256410258,952.9000000000001 1279,948 C 1369.2589743589742,943.0999999999999 1457.502564102564,892.5999999999999 1564,877 C 1670.497435897436,861.4000000000001 1795.248717948718,880.7 1920,900 C 1920,900 1920,1080 1920,1080 Z" fill="#ffffff" opacity="0.49999999999999994"/></svg>